<svg width="32" height="20" viewBox="0 0 32 20" fill="none" xmlns="http://www.w3.org/2000/svg">
<path d="M32 1.11108V9.99969C32 10.2944 31.8796 10.577 31.6653 10.7853C31.451 10.9937 31.1603 11.1108 30.8572 11.1108C30.5541 11.1108 30.2634 10.9937 30.0491 10.7853C29.8347 10.577 29.7143 10.2944 29.7143 9.99969V3.79294L17.9517 15.2301C17.8456 15.3334 17.7195 15.4153 17.5808 15.4713C17.4421 15.5272 17.2933 15.5559 17.1432 15.5559C16.993 15.5559 16.8443 15.5272 16.7055 15.4713C16.5668 15.4153 16.4407 15.3334 16.3346 15.2301L11.429 10.4594L1.95203 19.6744C1.73758 19.8829 1.44674 20 1.14347 20C0.840203 20 0.549357 19.8829 0.334915 19.6744C0.120472 19.4659 0 19.1831 0 18.8883C0 18.5935 0.120472 18.3107 0.334915 18.1022L10.6204 8.10253C10.7266 7.99922 10.8526 7.91727 10.9913 7.86136C11.1301 7.80544 11.2788 7.77666 11.429 7.77666C11.5792 7.77666 11.7279 7.80544 11.8666 7.86136C12.0054 7.91727 12.1314 7.99922 12.2375 8.10253L17.1432 12.8732L28.0986 2.22215H21.7145C21.4114 2.22215 21.1207 2.10509 20.9064 1.89673C20.6921 1.68836 20.5717 1.40575 20.5717 1.11108C20.5717 0.816401 20.6921 0.533794 20.9064 0.325427C21.1207 0.11706 21.4114 0 21.7145 0H30.8572C31.1603 0 31.451 0.11706 31.6653 0.325427C31.8796 0.533794 32 0.816401 32 1.11108Z" fill="white"/>
</svg>
