<svg width="18" height="18" viewBox="0 0 18 18" fill="none" xmlns="http://www.w3.org/2000/svg">
<path d="M16.7962 0.0913628C16.7878 0.0687156 16.7736 0.048647 16.7551 0.0331257C16.7366 0.0176044 16.7143 0.00716343 16.6905 0.00282699C16.667 -0.00195205 16.6426 -0.000655814 16.6196 0.00659382C16.5967 0.0138435 16.576 0.0268083 16.5594 0.0442693C16.5351 0.0699171 14.0109 2.64832 8.20068 3.35183C8.17068 3.35458 5.21133 3.62149 2.87129 5.24817C1.57235 6.15652 0.657838 7.51567 0.305736 9.06111C-0.0463663 10.6065 0.189129 12.2277 0.966391 13.6091C1.09405 13.832 1.23657 14.046 1.39299 14.2497C1.87442 13.6953 2.41508 13.1953 3.00532 12.7586L4.10543 8.39952C4.1192 8.34499 4.14359 8.2937 4.17719 8.24858C4.21078 8.20347 4.25294 8.16542 4.30124 8.13659C4.34955 8.10777 4.40306 8.08875 4.45872 8.08061C4.51437 8.07246 4.57109 8.07536 4.62563 8.08914C4.68017 8.10292 4.73145 8.1273 4.77657 8.1609C4.82168 8.1945 4.85974 8.23665 4.88856 8.28496C4.91738 8.33327 4.9364 8.38677 4.94455 8.44243C4.95269 8.49809 4.94979 8.55481 4.93601 8.60934L4.06978 12.0435C5.34106 11.2868 6.70478 10.6975 8.12707 10.2902L8.98315 7.28247C9.00931 7.19328 9.0636 7.11495 9.13792 7.05914C9.21224 7.00333 9.30261 6.97305 9.39555 6.97281C9.43503 6.973 9.47434 6.97826 9.51248 6.98846C9.62158 7.0199 9.71384 7.09316 9.76917 7.1923C9.82451 7.29144 9.83844 7.40843 9.80794 7.51779L9.10154 9.99563C10.1507 9.64412 11.1337 9.11979 12.01 8.4443V6.14382C12.01 6.03029 12.0551 5.92142 12.1354 5.84115C12.2157 5.76087 12.3246 5.71577 12.4381 5.71577C12.5516 5.71577 12.6605 5.76087 12.7407 5.84115C12.821 5.92142 12.8661 6.03029 12.8661 6.14382V7.67095C14.2588 6.21989 14.5812 4.79013 14.5855 4.77434C14.6056 4.67832 14.6581 4.59215 14.7342 4.53031C14.8104 4.46848 14.9055 4.43476 15.0036 4.43483C15.0318 4.43433 15.06 4.4367 15.0878 4.44193C15.1432 4.45293 15.1958 4.47487 15.2426 4.50647C15.2894 4.53807 15.3294 4.57869 15.3603 4.62596C15.3917 4.67257 15.4135 4.725 15.4242 4.78015C15.435 4.83531 15.4346 4.89206 15.4231 4.94706C15.4202 4.96416 15.0792 6.58229 13.514 8.22883H14.9179C15.0301 8.23089 15.137 8.2769 15.2156 8.35697C15.2942 8.43703 15.3383 8.54475 15.3383 8.65694C15.3383 8.76914 15.2942 8.87686 15.2156 8.95692C15.137 9.03698 15.0301 9.083 14.9179 9.08506H12.575C11.7547 9.73008 10.843 10.2495 9.86981 10.6261L11.9831 11.2767C12.0377 11.2925 12.0885 11.3191 12.1327 11.3548C12.1769 11.3905 12.2136 11.4346 12.2406 11.4846C12.2675 11.5346 12.2843 11.5895 12.2898 11.6461C12.2953 11.7026 12.2895 11.7597 12.2728 11.814C12.256 11.8683 12.2286 11.9187 12.1921 11.9623C12.1557 12.0059 12.1109 12.0417 12.0604 12.0678C12.0099 12.0939 11.9548 12.1097 11.8981 12.1142C11.8415 12.1188 11.7845 12.112 11.7305 12.0943L8.45991 11.0869C7.04878 11.4799 5.69718 12.0616 4.44175 12.8163L7.67801 13.6311C7.78813 13.6587 7.88277 13.729 7.9411 13.8264C7.99943 13.9238 8.01668 14.0404 7.98904 14.1505C7.96141 14.2606 7.89117 14.3553 7.79376 14.4136C7.69635 14.4719 7.57976 14.4892 7.46964 14.4615L3.49292 13.4614C2.93858 13.8736 2.43299 14.3475 1.98593 14.8741C2.99391 15.7565 4.16514 16.4327 5.43332 16.8645C6.26635 17.1436 7.13881 17.2872 8.01737 17.2898C9.86387 17.2898 12.0726 16.6404 14.3956 14.5486C14.497 14.4659 15.946 13.2774 16.9796 10.9272C17.9444 8.72976 18.6944 5.06545 16.7962 0.0913628Z" fill="url(#paint0_linear_31_432)"/>
<path d="M3.43082 13.1509L7.53839 14.1842C7.5748 14.1926 7.61307 14.1864 7.64497 14.167C7.67687 14.1475 7.69985 14.1163 7.70898 14.08C7.71811 14.0438 7.71265 14.0054 7.69378 13.9731C7.67492 13.9408 7.64415 13.9173 7.60808 13.9074L3.73671 12.9335C5.18727 11.9684 6.78467 11.2447 8.46678 10.7906L11.8151 11.8221C11.8287 11.8263 11.8428 11.8284 11.8571 11.8284C11.8915 11.8286 11.9248 11.8164 11.951 11.794C11.9771 11.7716 11.9943 11.7406 11.9993 11.7065C12.0044 11.6724 11.9969 11.6377 11.9784 11.6087C11.9598 11.5797 11.9314 11.5584 11.8984 11.5487L8.96206 10.6445C10.2394 10.2578 11.4315 9.63162 12.4749 8.79947H14.9183C14.9374 8.80007 14.9565 8.79684 14.9743 8.78994C14.9921 8.78305 15.0084 8.77263 15.0222 8.75933C15.0359 8.74602 15.0468 8.73009 15.0543 8.71248C15.0617 8.69486 15.0656 8.67593 15.0656 8.65681C15.0656 8.63768 15.0617 8.61875 15.0543 8.60114C15.0468 8.58353 15.0359 8.5676 15.0222 8.55429C15.0084 8.54098 14.9921 8.53057 14.9743 8.52368C14.9565 8.51678 14.9374 8.51354 14.9183 8.51415H12.8102C14.7289 6.7914 15.1378 4.91896 15.1432 4.89056C15.1507 4.85349 15.1432 4.81495 15.1223 4.78342C15.1015 4.75188 15.0689 4.72993 15.0318 4.7224C14.9948 4.71487 14.9562 4.72237 14.9247 4.74325C14.8932 4.76414 14.8712 4.79669 14.8637 4.83376C14.858 4.86115 14.4608 6.67519 12.5807 8.34041V6.14484C12.5813 6.12572 12.5781 6.10668 12.5712 6.08884C12.5643 6.071 12.5539 6.05473 12.5406 6.04099C12.5273 6.02725 12.5113 6.01633 12.4937 6.00887C12.4761 6.00141 12.4572 5.99756 12.4381 5.99756C12.4189 5.99756 12.4 6.00141 12.3824 6.00887C12.3648 6.01633 12.3489 6.02725 12.3355 6.04099C12.3222 6.05473 12.3118 6.071 12.3049 6.08884C12.298 6.10668 12.2948 6.12572 12.2954 6.14484V8.58139C11.224 9.43072 9.99499 10.0596 8.67935 10.4317L9.53167 7.43998C9.54205 7.40357 9.53753 7.36453 9.51912 7.33144C9.50071 7.29836 9.46991 7.27394 9.4335 7.26357C9.39709 7.25319 9.35804 7.2577 9.32496 7.27611C9.29187 7.29452 9.26746 7.32532 9.25708 7.36174L8.35622 10.5245C6.67202 10.9849 5.07187 11.7105 3.61586 12.674L4.65916 8.53994C4.66439 8.52158 4.66587 8.50235 4.66353 8.4834C4.66119 8.46445 4.65507 8.44616 4.64553 8.42961C4.63599 8.41307 4.62324 8.39861 4.60801 8.38708C4.59278 8.37556 4.5754 8.36721 4.55689 8.36253C4.53837 8.35784 4.51911 8.35692 4.50024 8.35982C4.48136 8.36271 4.46326 8.36937 4.447 8.37938C4.43075 8.3894 4.41666 8.40258 4.40559 8.41814C4.39452 8.43369 4.38668 8.45131 4.38254 8.46996L3.25737 12.9282C1.71806 14.0615 0.347137 15.648 0.00183302 17.8026C-0.00116382 17.8211 -0.000480637 17.84 0.00384341 17.8582C0.00816746 17.8765 0.0160474 17.8937 0.0270316 17.9088C0.0380158 17.924 0.0518884 17.9369 0.0678543 17.9467C0.0838203 17.9565 0.101566 17.9631 0.120074 17.966C0.12759 17.9673 0.135201 17.9679 0.142824 17.9679C0.176721 17.9679 0.209492 17.9557 0.235272 17.9337C0.261051 17.9117 0.278156 17.8813 0.283525 17.8478C0.615353 15.7778 1.93919 14.2477 3.43082 13.1509Z" fill="url(#paint1_linear_31_432)"/>
<defs>
<linearGradient id="paint0_linear_31_432" x1="0.14624" y1="8.64488" x2="17.9718" y2="8.64488" gradientUnits="userSpaceOnUse">
<stop stop-color="#16A34A"/>
<stop offset="1" stop-color="#007C2E"/>
</linearGradient>
<linearGradient id="paint1_linear_31_432" x1="0" y1="11.3437" x2="15.146" y2="11.3437" gradientUnits="userSpaceOnUse">
<stop stop-color="#16A34A"/>
<stop offset="1" stop-color="#007C2E"/>
</linearGradient>
</defs>
</svg>
